<svg width="31" height="31" viewBox="0 0 31 31" fill="none" xmlns="http://www.w3.org/2000/svg">
<path d="M9.66668 6.75V5.58333C9.66668 3.00208 9.66668 0.916664 14.3333 0.916664H16.6667C21.3333 0.916664 21.3333 3.00208 21.3333 5.58333V6.75M9.66668 30.0833H21.3333C27.1958 30.0833 28.2458 27.7354 28.5521 24.8771L29.6458 13.2104C30.0396 9.65208 29.0188 6.75 22.7917 6.75H8.20835C1.98126 6.75 0.960428 9.65208 1.35418 13.2104L2.44793 24.8771C2.75418 27.7354 3.80418 30.0833 9.66668 30.0833Z" stroke="#95979D" stroke-width="1.5" stroke-miterlimit="10" stroke-linecap="round" stroke-linejoin="round"/>
<path d="M29.5729 14.0417C26.286 16.4288 22.4478 17.944 18.4167 18.4458M1.82086 14.4354C5.10211 16.6813 8.80628 18.0375 12.5834 18.4604M18.4167 16.9583V18.4458C18.4167 20.0354 18.4021 21.3333 15.5 21.3333C12.6125 21.3333 12.5834 20.05 12.5834 18.4604V16.9583C12.5834 15.5 12.5834 15.5 14.0417 15.5H16.9584C18.4167 15.5 18.4167 15.5 18.4167 16.9583Z" stroke="#95979D" stroke-width="1.5" stroke-miterlimit="10" stroke-linecap="round" stroke-linejoin="round"/>
</svg>
