<svg width="31" height="31" viewBox="0 0 31 31" fill="none" xmlns="http://www.w3.org/2000/svg">
<path d="M22.7479 19.0583C24.7458 19.3937 26.9479 19.0437 28.4938 18.0083C30.55 16.6375 30.55 14.3917 28.4938 13.0208C26.9333 11.9854 24.7021 11.6354 22.7042 11.9854M8.20833 19.0583C6.21042 19.3937 4.00833 19.0437 2.4625 18.0083C0.406248 16.6375 0.406248 14.3917 2.4625 13.0208C4.02292 11.9854 6.25417 11.6354 8.25208 11.9854M24.25 8.44166C24.1582 8.42707 24.0647 8.42707 23.9729 8.44166C22.9997 8.40647 22.0782 7.99426 21.4033 7.29215C20.7284 6.59004 20.353 5.65304 20.3563 4.67916C20.3563 2.59375 22.0333 0.916664 24.1188 0.916664C25.1166 0.916664 26.0736 1.31307 26.7792 2.01868C27.4848 2.72428 27.8813 3.68129 27.8813 4.67916C27.8786 5.65373 27.4992 6.58952 26.8224 7.29077C26.1456 7.99201 25.2239 8.4044 24.25 8.44166V8.44166ZM6.70625 8.44166C6.79375 8.42708 6.89583 8.42708 6.98333 8.44166C7.95658 8.40647 8.87801 7.99426 9.55291 7.29215C10.2278 6.59004 10.6033 5.65304 10.6 4.67916C10.6 2.59375 8.92292 0.916664 6.8375 0.916664C5.83962 0.916664 4.88261 1.31307 4.17701 2.01868C3.4714 2.72428 3.075 3.68129 3.075 4.67916C3.08958 6.72083 4.69375 8.36875 6.70625 8.44166ZM15.5 19.3354C15.4082 19.3208 15.3147 19.3208 15.2229 19.3354C14.2497 19.3002 13.3282 18.888 12.6533 18.1859C11.9784 17.4838 11.603 16.5468 11.6062 15.5729C11.6062 13.4875 13.2833 11.8104 15.3688 11.8104C16.3666 11.8104 17.3236 12.2068 18.0292 12.9124C18.7348 13.618 19.1313 14.575 19.1313 15.5729C19.1167 17.6146 17.5125 19.2771 15.5 19.3354ZM11.2562 23.9292C9.2 25.3 9.2 27.5458 11.2562 28.9167C13.5896 30.4771 17.4104 30.4771 19.7438 28.9167C21.8 27.5458 21.8 25.3 19.7438 23.9292C17.425 22.3833 13.5896 22.3833 11.2562 23.9292Z" stroke="#95979D" stroke-width="1.5" stroke-linecap="round" stroke-linejoin="round"/>
</svg>
