<svg width="31" height="31" viewBox="0 0 31 31" fill="none" xmlns="http://www.w3.org/2000/svg">
<path d="M24.4542 29.5292C23.1708 29.9083 21.6542 30.0833 19.875 30.0833H11.125C9.34584 30.0833 7.82917 29.9083 6.54584 29.5292C6.86667 25.7375 10.7604 22.7479 15.5 22.7479C20.2396 22.7479 24.1333 25.7375 24.4542 29.5292V29.5292Z" stroke="#95979D" stroke-width="1.5" stroke-linecap="round" stroke-linejoin="round"/>
<path d="M19.875 0.916664H11.125C3.83332 0.916664 0.916656 3.83333 0.916656 11.125V19.875C0.916656 25.3875 2.57916 28.4062 6.54582 29.5292C6.86666 25.7375 10.7604 22.7479 15.5 22.7479C20.2396 22.7479 24.1333 25.7375 24.4542 29.5292C28.4208 28.4062 30.0833 25.3875 30.0833 19.875V11.125C30.0833 3.83333 27.1667 0.916664 19.875 0.916664ZM15.5 18.6646C12.6125 18.6646 10.2792 16.3167 10.2792 13.4292C10.2792 10.5417 12.6125 8.20833 15.5 8.20833C18.3875 8.20833 20.7208 10.5417 20.7208 13.4292C20.7208 16.3167 18.3875 18.6646 15.5 18.6646Z" stroke="#95979D" stroke-width="1.5" stroke-linecap="round" stroke-linejoin="round"/>
<path d="M20.7208 13.4292C20.7208 16.3167 18.3875 18.6646 15.5 18.6646C12.6125 18.6646 10.2792 16.3167 10.2792 13.4292C10.2792 10.5417 12.6125 8.20834 15.5 8.20834C18.3875 8.20834 20.7208 10.5417 20.7208 13.4292Z" stroke="#95979D" stroke-width="1.5" stroke-linecap="round" stroke-linejoin="round"/>
</svg>
