<svg width="31" height="31" viewBox="0 0 31 31" fill="none" xmlns="http://www.w3.org/2000/svg">
<path d="M15.5 19.875C16.6603 19.875 17.7731 19.4141 18.5936 18.5936C19.4141 17.7731 19.875 16.6603 19.875 15.5C19.875 14.3397 19.4141 13.2269 18.5936 12.4064C17.7731 11.5859 16.6603 11.125 15.5 11.125C14.3397 11.125 13.2269 11.5859 12.4064 12.4064C11.5859 13.2269 11.125 14.3397 11.125 15.5C11.125 16.6603 11.5859 17.7731 12.4064 18.5936C13.2269 19.4141 14.3397 19.875 15.5 19.875V19.875Z" stroke="#95979D" stroke-width="1.5" stroke-miterlimit="10" stroke-linecap="round" stroke-linejoin="round"/>
<path d="M0.916687 16.7833V14.2167C0.916687 12.7 2.15627 11.4458 3.68752 11.4458C6.3271 11.4458 7.40627 9.57917 6.07919 7.28959C5.32085 5.97709 5.77294 4.27084 7.10002 3.5125L9.62294 2.06875C10.775 1.38334 12.2625 1.79167 12.9479 2.94375L13.1084 3.22084C14.4209 5.51042 16.5792 5.51042 17.9063 3.22084L18.0667 2.94375C18.7521 1.79167 20.2396 1.38334 21.3917 2.06875L23.9146 3.5125C25.2417 4.27084 25.6938 5.97709 24.9354 7.28959C23.6084 9.57917 24.6875 11.4458 27.3271 11.4458C28.8438 11.4458 30.0979 12.6854 30.0979 14.2167V16.7833C30.0979 18.3 28.8584 19.5542 27.3271 19.5542C24.6875 19.5542 23.6084 21.4208 24.9354 23.7104C25.6938 25.0375 25.2417 26.7292 23.9146 27.4875L21.3917 28.9313C20.2396 29.6167 18.7521 29.2083 18.0667 28.0563L17.9063 27.7792C16.5938 25.4896 14.4354 25.4896 13.1084 27.7792L12.9479 28.0563C12.2625 29.2083 10.775 29.6167 9.62294 28.9313L7.10002 27.4875C6.46433 27.1215 5.99983 26.5182 5.80844 25.8101C5.61706 25.102 5.71443 24.3468 6.07919 23.7104C7.40627 21.4208 6.3271 19.5542 3.68752 19.5542C2.15627 19.5542 0.916687 18.3 0.916687 16.7833V16.7833Z" stroke="#95979D" stroke-width="1.5" stroke-miterlimit="10" stroke-linecap="round" stroke-linejoin="round"/>
</svg>
