<svg width="31" height="31" viewBox="0 0 31 31" fill="none" xmlns="http://www.w3.org/2000/svg">
<path d="M30.0834 7.11458V14.5521C30.0834 16.4042 29.4709 17.9646 28.3771 19.0437C27.2979 20.1375 25.7375 20.75 23.8854 20.75V23.3896C23.8854 24.3812 22.7771 24.9792 21.9604 24.425L20.5459 23.4917C20.6771 23.0396 20.7354 22.5437 20.7354 22.0187V16.0833C20.7354 13.1083 18.7521 11.125 15.7771 11.125H5.87502C5.67085 11.125 5.48127 11.1396 5.29169 11.1542V7.11458C5.29169 3.39583 7.77085 0.916664 11.4896 0.916664H23.8854C27.6042 0.916664 30.0834 3.39583 30.0834 7.11458Z" stroke="#95979D" stroke-width="1.5" stroke-miterlimit="10" stroke-linecap="round" stroke-linejoin="round"/>
<path d="M20.7354 16.0833V22.0187C20.7354 22.5437 20.6771 23.0396 20.5459 23.4917C20.0063 25.6354 18.2271 26.9771 15.7771 26.9771H11.8104L7.40627 29.9083C7.25863 30.0094 7.08611 30.0681 6.90747 30.0779C6.72882 30.0878 6.5509 30.0485 6.39303 29.9643C6.23516 29.8801 6.1034 29.7542 6.01207 29.6004C5.92074 29.4465 5.87334 29.2706 5.87502 29.0917V26.9771C4.38752 26.9771 3.14794 26.4813 2.28752 25.6208C1.41252 24.7458 0.916687 23.5062 0.916687 22.0187V16.0833C0.916687 13.3125 2.63752 11.4021 5.29169 11.1542C5.48127 11.1396 5.67085 11.125 5.87502 11.125H15.7771C18.7521 11.125 20.7354 13.1083 20.7354 16.0833V16.0833Z" stroke="#95979D" stroke-width="1.5" stroke-miterlimit="10" stroke-linecap="round" stroke-linejoin="round"/>
</svg>
